<svg xmlns="http://www.w3.org/2000/svg" width="520" height="128" viewBox="0 0 520 128" role="img" aria-label="Figo Portal F logo for dark backgrounds">
  <rect width="520" height="128" rx="20" fill="#0D1424"/>
  <defs><linearGradient id="f" x1="18" y1="18" x2="111" y2="110" gradientUnits="userSpaceOnUse"><stop stop-color="#2DE0C8"/><stop offset="0.5" stop-color="#6293FF"/><stop offset="1" stop-color="#8B67FF"/></linearGradient></defs>
  <g><path d="M102 17H38c-13 0-23 10-23 23v48c0 13 10 23 23 23h64" fill="none" stroke="#29344B" stroke-width="10" stroke-linecap="round"/><path d="M41 98V38h56M41 64h45" fill="none" stroke="url(#f)" stroke-width="18" stroke-linecap="round" stroke-linejoin="round"/><path d="m83 48 17 16-17 16" fill="none" stroke="#8B67FF" stroke-width="12" stroke-linecap="round" stroke-linejoin="round"/><circle cx="41" cy="38" r="6" fill="#F8FAFF"/></g>
  <g fill="#F4F7FF"><path d="M169 105V55c0-23 13-35 38-35h17v18h-14c-13 0-19 6-19 19v48h-22Z"/><rect x="155" y="52" width="66" height="18" rx="9"/><circle cx="249" cy="31" r="11"/><rect x="238" y="52" width="22" height="53" rx="11"/><path fill-rule="evenodd" d="M318 50c13 0 23 5 30 13V52h21v55c0 29-18 43-48 43-15 0-29-4-39-11l9-16c9 5 18 8 28 8 18 0 28-7 28-23v-7c-7 8-17 12-29 12-25 0-44-19-44-44s19-44 44-44Zm4 19c-15 0-25 10-25 25s10 25 25 25 25-10 25-25-10-25-25-25Z" transform="translate(0 -8)"/><path fill-rule="evenodd" d="M430 50c29 0 50 21 50 49s-21 49-50 49-50-21-50-49 21-49 50-49Zm0 20c-16 0-27 12-27 29s11 29 27 29 27-12 27-29-11-29-27-29Z" transform="translate(0 -20)"/></g>
</svg>
